<svg width="48" height="48" viewBox="0 0 48 48" fill="none" xmlns="http://www.w3.org/2000/svg">
<path fill-rule="evenodd" clip-rule="evenodd" d="M24 0C10.7452 0 0 10.7452 0 24C0 37.2548 10.7452 48 24 48C37.2548 48 48 37.2548 48 24C48 10.7452 37.2548 0 24 0ZM18.5233 11.0773C19.8886 11.0152 20.3249 11 23.8012 11H23.7972C27.2746 11 27.7092 11.0152 29.0746 11.0773C30.4373 11.1397 31.3679 11.3555 32.184 11.672C33.0266 11.9987 33.7386 12.436 34.4506 13.148C35.1627 13.8595 35.6 14.5736 35.928 15.4155C36.2427 16.2294 36.4587 17.1595 36.5227 18.5222C36.584 19.8876 36.6 20.3238 36.6 23.8001C36.6 27.2764 36.584 27.7116 36.5227 29.077C36.4587 30.4391 36.2427 31.3695 35.928 32.1837C35.6 33.0253 35.1627 33.7394 34.4506 34.4509C33.7394 35.1629 33.0264 35.6013 32.1848 35.9283C31.3703 36.2448 30.4391 36.4605 29.0765 36.5229C27.7111 36.5851 27.2762 36.6003 23.7996 36.6003C20.3236 36.6003 19.8876 36.5851 18.5222 36.5229C17.1598 36.4605 16.2294 36.2448 15.415 35.9283C14.5736 35.6013 13.8595 35.1629 13.1483 34.4509C12.4365 33.7394 11.9992 33.0253 11.672 32.1834C11.3557 31.3695 11.14 30.4394 11.0773 29.0767C11.0155 27.7114 11 27.2764 11 23.8001C11 20.3238 11.016 19.8873 11.0771 18.5219C11.1384 17.1598 11.3544 16.2294 11.6717 15.4152C11.9997 14.5736 12.4371 13.8595 13.1491 13.148C13.8606 12.4363 14.5747 11.9989 15.4166 11.672C16.2305 11.3555 17.1606 11.1397 18.5233 11.0773Z" fill="#00FF00"/>
<path fill-rule="evenodd" clip-rule="evenodd" d="M22.8529 13.5067C23.0759 13.5063 23.3157 13.5065 23.5746 13.5066L24.0012 13.5067C27.4188 13.5067 27.8239 13.519 29.1735 13.5803C30.4215 13.6374 31.0989 13.8459 31.5501 14.0211C32.1474 14.2531 32.5733 14.5304 33.021 14.9784C33.469 15.4264 33.7464 15.8531 33.9789 16.4505C34.1541 16.9011 34.3629 17.5785 34.4197 18.8265C34.481 20.1758 34.4944 20.5812 34.4944 23.9972C34.4944 27.4132 34.481 27.8186 34.4197 29.1679C34.3626 30.4159 34.1541 31.0933 33.9789 31.5439C33.7469 32.1413 33.469 32.5666 33.021 33.0144C32.573 33.4624 32.1477 33.7397 31.5501 33.9717C31.0994 34.1477 30.4215 34.3557 29.1735 34.4128C27.8242 34.4741 27.4188 34.4874 24.0012 34.4874C20.5833 34.4874 20.1782 34.4741 18.8289 34.4128C17.5809 34.3552 16.9035 34.1466 16.4521 33.9714C15.8547 33.7394 15.428 33.4621 14.98 33.0141C14.532 32.5661 14.2547 32.1405 14.0222 31.5429C13.847 31.0922 13.6382 30.4149 13.5814 29.1669C13.52 27.8175 13.5078 27.4122 13.5078 23.994C13.5078 20.5758 13.52 20.1726 13.5814 18.8233C13.6384 17.5753 13.847 16.8979 14.0222 16.4467C14.2542 15.8494 14.532 15.4227 14.98 14.9747C15.428 14.5267 15.8547 14.2494 16.4521 14.0168C16.9033 13.8408 17.5809 13.6328 18.8289 13.5755C20.0097 13.5222 20.4673 13.5062 22.8529 13.5035V13.5067ZM30.8338 15.632C29.9858 15.632 29.2978 16.3193 29.2978 17.1675C29.2978 18.0155 29.9858 18.7035 30.8338 18.7035C31.6818 18.7035 32.3698 18.0155 32.3698 17.1675C32.3698 16.3195 31.6818 15.6315 30.8338 15.6315V15.632ZM17.4278 24.0001C17.4278 20.3701 20.3709 17.4269 24.0009 17.4267C27.6311 17.4267 30.5735 20.37 30.5735 24.0001C30.5735 27.6303 27.6314 30.5722 24.0012 30.5722C20.371 30.5722 17.4278 27.6303 17.4278 24.0001Z" fill="#00FF00"/>
<path d="M24.0012 19.7334C26.3575 19.7334 28.2679 21.6436 28.2679 24.0001C28.2679 26.3564 26.3575 28.2669 24.0012 28.2669C21.6446 28.2669 19.7345 26.3564 19.7345 24.0001C19.7345 21.6436 21.6446 19.7334 24.0012 19.7334Z" fill="#00FF00"/>
</svg>
